<svg width="799" height="171" viewBox="0 0 799 171" fill="none" xmlns="http://www.w3.org/2000/svg">
<g clip-path="url(#clip0_131_7)">
<rect x="12.2048" y="-57.5068" width="1477.72" height="786.938" fill="#ECECEC"/>
<path d="M1085.54 381.559L939.044 238.559L889.044 282.559L766.044 170.559L602.544 366.059" stroke="#1FB1A9" stroke-opacity="0.6" stroke-width="7"/>
<path d="M12.2048 -57.5068H1489.93V729.431H12.2048V-57.5068Z" fill="white"/>
<path d="M0 -57.5068H1478.78V742.493H0V-57.5068Z" fill="white"/>
<path d="M298 43.4406H351.025V60.1871H332.95V122.251H315.955V60.1871H298V43.4406Z" fill="#105D88"/>
<path d="M385.468 70.6311V78.2541H385.708C387.229 75.6931 388.991 73.6723 390.992 72.1917C393.034 70.6711 394.916 69.9108 396.637 69.9108C397.678 69.9108 398.619 69.9909 399.46 70.1509V86.9575C398.179 86.7174 396.917 86.5973 395.676 86.5973C392.514 86.5973 390.052 87.7178 388.29 89.9586C386.569 92.1595 385.708 95.2607 385.708 99.2622V122.251H370.095V70.6311H385.468Z" fill="#105D88"/>
<path d="M419.79 51.5437C419.79 48.9427 420.731 46.7018 422.613 44.8211C424.494 42.9404 426.756 42 429.399 42C432.041 42 434.303 42.9404 436.184 44.8211C438.066 46.7018 439.007 48.9427 439.007 51.5437C439.007 54.1847 438.066 56.4456 436.184 58.3263C434.303 60.2071 432.041 61.1474 429.399 61.1474C426.756 61.1474 424.494 60.2071 422.613 58.3263C420.731 56.4456 419.79 54.1847 419.79 51.5437ZM421.772 70.6311H437.145V122.251H421.772V70.6311Z" fill="#105D88"/>
<path d="M480.415 70.7512V78.2541H480.656C482.898 75.2529 485.22 73.0721 487.622 71.7115C490.064 70.311 492.986 69.6107 496.389 69.6107C502.554 69.6107 507.799 72.3118 512.122 77.7139C516.486 83.116 518.668 89.6785 518.668 97.4015C518.668 104.484 516.546 110.567 512.303 115.649C508.099 120.691 503.095 123.212 497.29 123.212C493.727 123.212 490.744 122.471 488.342 120.991C485.94 119.51 483.458 117.149 480.896 113.908H480.656V145H465.042V70.7512H480.415ZM502.574 97.2815C502.574 93.9202 501.493 91.039 499.332 88.6381C497.17 86.1972 494.587 84.9767 491.585 84.9767C488.622 84.9767 486.1 86.1772 484.019 88.5781C481.937 90.939 480.896 93.8401 480.896 97.2815C480.896 100.603 481.977 103.444 484.139 105.805C486.341 108.166 489.003 109.346 492.125 109.346C495.168 109.346 497.67 108.226 499.632 105.985C501.593 103.744 502.574 100.843 502.574 97.2815Z" fill="#105D88"/>
<path d="M535.936 43.4406H553.111L573.048 95.8409L592.985 43.4406H610.219L580.434 122.251H565.661L535.936 43.4406Z" fill="#105D88"/>
<path d="M628.989 51.5437C628.989 48.9427 629.929 46.7018 631.811 44.8211C633.693 42.9404 635.955 42 638.597 42C641.239 42 643.501 42.9404 645.383 44.8211C647.264 46.7018 648.205 48.9427 648.205 51.5437C648.205 54.1847 647.264 56.4456 645.383 58.3263C643.501 60.2071 641.239 61.1474 638.597 61.1474C635.955 61.1474 633.693 60.2071 631.811 58.3263C629.929 56.4456 628.989 54.1847 628.989 51.5437ZM630.97 70.6311H646.343V122.251H630.97V70.6311Z" fill="#105D88"/>
<path d="M673.88 42H689.253V77.6538C693.817 72.2918 699.022 69.6107 704.867 69.6107C711.032 69.6107 716.356 72.2718 720.84 77.5938C725.364 82.9159 727.626 89.3184 727.626 96.8013C727.626 103.884 725.404 110.066 720.96 115.348C716.516 120.591 711.352 123.212 705.467 123.212C702.505 123.212 699.762 122.471 697.24 120.991C694.758 119.51 692.056 117.149 689.133 113.908V122.251H673.88V42ZM700.303 84.9767C697.26 84.9767 694.718 86.0771 692.676 88.278C690.635 90.4388 689.614 93.3599 689.614 97.0414C689.614 100.563 690.675 103.484 692.796 105.805C694.958 108.086 697.66 109.226 700.903 109.226C703.866 109.226 706.328 108.106 708.289 105.865C710.251 103.584 711.232 100.723 711.232 97.2815C711.232 93.9202 710.151 91.039 707.989 88.6381C705.867 86.1972 703.305 84.9767 700.303 84.9767Z" fill="#105D88"/>
<path d="M799 100.103H762.189C762.389 103.424 763.47 106.125 765.432 108.206C767.433 110.287 769.755 111.327 772.397 111.327C777.121 111.327 780.825 109.186 783.507 104.904L797.619 109.586C792.374 118.75 784.227 123.332 773.178 123.332C765.051 123.332 758.586 120.871 753.782 115.949C748.978 111.027 746.576 104.404 746.576 96.081C746.576 88.5981 749.098 82.3157 754.142 77.2337C759.226 72.1517 765.472 69.6107 772.878 69.6107C780.324 69.6107 786.529 72.2918 791.494 77.6538C796.498 82.9759 799 89.6385 799 97.6416V100.103ZM762.309 89.7786H783.087C781.645 83.3361 778.342 80.1148 773.178 80.1148C770.216 80.1148 767.754 80.9551 765.792 82.6358C763.87 84.3164 762.709 86.6974 762.309 89.7786Z" fill="#105D88"/>
<circle cx="121.258" cy="79.8952" r="73.3952" stroke="#105D88" stroke-width="13"/>
<path fill-rule="evenodd" clip-rule="evenodd" d="M41.46 70.8269L17.6178 74.364L8 75.7908L15.7565 81.7165L40.066 100.288L29.8683 154.085L28.1789 162.998L36.1437 158.657L257.396 38.0875L277.574 27.0918L254.956 31.4257L185.536 44.7272L187.211 51.4994L186.368 51.6971L234.778 42.4214L37.8332 149.745L46.9525 101.637L47.7575 97.3896L44.3005 94.7485L25.3743 80.2897L43.1484 77.6528L41.46 70.8269Z" fill="#E55652"/>
<path d="M17.6178 74.364L17.1775 71.3965L17.1775 71.3965L17.6178 74.364ZM41.46 70.8269L44.3723 70.1066L43.7174 67.4592L41.0198 67.8594L41.46 70.8269ZM8 75.7908L7.55976 72.8233L0.537536 73.8651L6.17877 78.1748L8 75.7908ZM15.7565 81.7165L13.9353 84.1005L13.9353 84.1005L15.7565 81.7165ZM40.066 100.288L43.0135 100.847L43.3583 99.0279L41.8872 97.904L40.066 100.288ZM29.8683 154.085L32.8158 154.644L32.8158 154.644L29.8683 154.085ZM28.1789 162.998L25.2314 162.439L24.0515 168.664L29.6144 165.632L28.1789 162.998ZM36.1437 158.657L37.5793 161.292L37.5793 161.292L36.1437 158.657ZM257.396 38.0875L258.832 40.7217L258.832 40.7217L257.396 38.0875ZM277.574 27.0918L279.01 29.7261L277.009 24.1454L277.574 27.0918ZM254.956 31.4257L255.52 34.3721L254.956 31.4257ZM185.536 44.7272L184.971 41.7808L181.864 42.3762L182.623 45.4475L185.536 44.7272ZM187.211 51.4994L187.896 54.42L190.852 53.7264L190.123 50.779L187.211 51.4994ZM186.368 51.6971L185.683 48.7764L186.933 54.6435L186.368 51.6971ZM234.778 42.4214L236.213 45.0556L234.213 39.475L234.778 42.4214ZM37.8332 149.745L34.8857 149.186L33.7058 155.411L39.2687 152.379L37.8332 149.745ZM46.9525 101.637L49.9 102.195L49.9 102.195L46.9525 101.637ZM47.7575 97.3896L50.7051 97.9483L51.0498 96.1295L49.5788 95.0056L47.7575 97.3896ZM44.3005 94.7485L46.1217 92.3646L46.1217 92.3646L44.3005 94.7485ZM25.3743 80.2897L24.9341 77.3222L17.9119 78.3639L23.5531 82.6736L25.3743 80.2897ZM43.1484 77.6528L43.5887 80.6203L46.8531 80.1361L46.0607 76.9325L43.1484 77.6528ZM18.058 77.3315L41.9003 73.7944L41.0198 67.8594L17.1775 71.3965L18.058 77.3315ZM8.44024 78.7584L18.058 77.3315L17.1775 71.3965L7.55976 72.8233L8.44024 78.7584ZM17.5778 79.3326L9.82123 73.4069L6.17877 78.1748L13.9353 84.1005L17.5778 79.3326ZM41.8872 97.904L17.5778 79.3326L13.9353 84.1005L38.2448 102.672L41.8872 97.904ZM32.8158 154.644L43.0135 100.847L37.1185 99.7292L26.9208 153.527L32.8158 154.644ZM31.1264 163.557L32.8158 154.644L26.9208 153.527L25.2314 162.439L31.1264 163.557ZM34.7082 156.023L26.7434 160.364L29.6144 165.632L37.5793 161.292L34.7082 156.023ZM255.961 35.4532L34.7082 156.023L37.5793 161.292L258.832 40.7217L255.961 35.4532ZM276.139 24.4575L255.961 35.4532L258.832 40.7217L279.01 29.7261L276.139 24.4575ZM255.52 34.3721L278.139 30.0382L277.009 24.1454L254.391 28.4793L255.52 34.3721ZM186.1 47.6736L255.52 34.3721L254.391 28.4793L184.971 41.7808L186.1 47.6736ZM182.623 45.4475L184.299 52.2197L190.123 50.779L188.448 44.0068L182.623 45.4475ZM186.525 48.5787L185.683 48.7764L187.054 54.6177L187.896 54.42L186.525 48.5787ZM234.213 39.475L185.804 48.7507L186.933 54.6435L235.342 45.3678L234.213 39.475ZM39.2687 152.379L236.213 45.0556L233.342 39.7871L36.3977 147.111L39.2687 152.379ZM44.0049 101.078L34.8857 149.186L40.7807 150.304L49.9 102.195L44.0049 101.078ZM44.81 96.8308L44.0049 101.078L49.9 102.195L50.7051 97.9483L44.81 96.8308ZM42.4792 97.1324L45.9363 99.7735L49.5788 95.0056L46.1217 92.3646L42.4792 97.1324ZM23.5531 82.6736L42.4792 97.1324L46.1217 92.3646L27.1955 77.9057L23.5531 82.6736ZM42.7082 74.6853L24.9341 77.3222L25.8146 83.2572L43.5887 80.6203L42.7082 74.6853ZM46.0607 76.9325L44.3723 70.1066L38.5478 71.5472L40.2362 78.3732L46.0607 76.9325Z" fill="#E55650"/>
<path fill-rule="evenodd" clip-rule="evenodd" d="M185.229 61.4986C177.237 33.4988 151.46 13 120.895 13C83.95 13 54 42.95 54 79.8952C54 92.8573 57.6866 104.958 64.0686 115.207L52.0843 120.519C45.0419 108.616 41 94.7278 41 79.8952C41 35.7703 76.7703 0 120.895 0C156.765 0 187.113 23.6378 197.214 56.1859L185.229 61.4986ZM177.947 135.826L124.023 159.73C145.124 158.918 164.127 149.922 177.947 135.826Z" fill="#105D88"/>
</g>
<defs>
<clipPath id="clip0_131_7">
<rect width="799" height="171" fill="white"/>
</clipPath>
</defs>
</svg>
